<mxfile host="app.diagrams.net" modified="2023-11-01T16:56:17.362Z" agent="Mozilla/5.0 (Macintosh; Intel Mac OS X 10_15_7) AppleWebKit/537.36 (KHTML, like Gecko) Chrome/114.0.0.0 Safari/537.36" etag="4JyJhbgreVfoYUrf6-bE" version="22.0.8" type="google">
  <diagram name="페이지-1" id="ABaiPCi4m6OBIwFcqp2B">
    <mxGraphModel grid="1" page="1" gridSize="10" guides="1" tooltips="1" connect="1" arrows="1" fold="1" pageScale="1" pageWidth="827" pageHeight="1169" math="0" shadow="0">
      <root>
        <mxCell id="0" />
        <mxCell id="1" parent="0" />
        <mxCell id="OiVBez5M1Nfayc0aatm5-22" value="" style="edgeStyle=orthogonalEdgeStyle;rounded=0;sketch=1;hachureGap=4;jiggle=2;curveFitting=1;orthogonalLoop=1;jettySize=auto;html=1;fontFamily=Architects Daughter;fontSource=https%3A%2F%2Ffonts.googleapis.com%2Fcss%3Ffamily%3DArchitects%2BDaughter;fontSize=16;" edge="1" parent="1" source="OiVBez5M1Nfayc0aatm5-1" target="OiVBez5M1Nfayc0aatm5-2">
          <mxGeometry relative="1" as="geometry" />
        </mxCell>
        <mxCell id="OiVBez5M1Nfayc0aatm5-1" value="Jest" style="rounded=0;whiteSpace=wrap;html=1;sketch=1;hachureGap=4;jiggle=2;curveFitting=1;fontFamily=Architects Daughter;fontSource=https%3A%2F%2Ffonts.googleapis.com%2Fcss%3Ffamily%3DArchitects%2BDaughter;fontSize=20;" vertex="1" parent="1">
          <mxGeometry x="280" y="40" width="240" height="40" as="geometry" />
        </mxCell>
        <mxCell id="OiVBez5M1Nfayc0aatm5-23" style="edgeStyle=orthogonalEdgeStyle;rounded=0;sketch=1;hachureGap=4;jiggle=2;curveFitting=1;orthogonalLoop=1;jettySize=auto;html=1;entryX=0.5;entryY=0;entryDx=0;entryDy=0;fontFamily=Architects Daughter;fontSource=https%3A%2F%2Ffonts.googleapis.com%2Fcss%3Ffamily%3DArchitects%2BDaughter;fontSize=16;" edge="1" parent="1" source="OiVBez5M1Nfayc0aatm5-2" target="OiVBez5M1Nfayc0aatm5-3">
          <mxGeometry relative="1" as="geometry" />
        </mxCell>
        <mxCell id="OiVBez5M1Nfayc0aatm5-2" value="Jest?&lt;br&gt;testing framework made by Meta. it is for unit test." style="rounded=0;whiteSpace=wrap;html=1;sketch=1;hachureGap=4;jiggle=2;curveFitting=1;fontFamily=Architects Daughter;fontSource=https%3A%2F%2Ffonts.googleapis.com%2Fcss%3Ffamily%3DArchitects%2BDaughter;fontSize=20;" vertex="1" parent="1">
          <mxGeometry x="200" y="100" width="400" height="100" as="geometry" />
        </mxCell>
        <mxCell id="OiVBez5M1Nfayc0aatm5-24" value="" style="edgeStyle=orthogonalEdgeStyle;rounded=0;sketch=1;hachureGap=4;jiggle=2;curveFitting=1;orthogonalLoop=1;jettySize=auto;html=1;fontFamily=Architects Daughter;fontSource=https%3A%2F%2Ffonts.googleapis.com%2Fcss%3Ffamily%3DArchitects%2BDaughter;fontSize=16;" edge="1" parent="1" source="OiVBez5M1Nfayc0aatm5-3" target="OiVBez5M1Nfayc0aatm5-4">
          <mxGeometry relative="1" as="geometry" />
        </mxCell>
        <mxCell id="OiVBez5M1Nfayc0aatm5-3" value="npm install jest --save-dev" style="rounded=0;whiteSpace=wrap;html=1;sketch=1;hachureGap=4;jiggle=2;curveFitting=1;fontFamily=Architects Daughter;fontSource=https%3A%2F%2Ffonts.googleapis.com%2Fcss%3Ffamily%3DArchitects%2BDaughter;fontSize=20;" vertex="1" parent="1">
          <mxGeometry x="200" y="230" width="400" height="40" as="geometry" />
        </mxCell>
        <mxCell id="OiVBez5M1Nfayc0aatm5-25" value="" style="edgeStyle=orthogonalEdgeStyle;rounded=0;sketch=1;hachureGap=4;jiggle=2;curveFitting=1;orthogonalLoop=1;jettySize=auto;html=1;fontFamily=Architects Daughter;fontSource=https%3A%2F%2Ffonts.googleapis.com%2Fcss%3Ffamily%3DArchitects%2BDaughter;fontSize=16;" edge="1" parent="1" source="OiVBez5M1Nfayc0aatm5-4" target="OiVBez5M1Nfayc0aatm5-5">
          <mxGeometry relative="1" as="geometry" />
        </mxCell>
        <mxCell id="OiVBez5M1Nfayc0aatm5-4" value="test script =&amp;gt; &#39;test&#39; : &#39;jest&#39; or &#39;jest --watchAll" style="rounded=0;whiteSpace=wrap;html=1;sketch=1;hachureGap=4;jiggle=2;curveFitting=1;fontFamily=Architects Daughter;fontSource=https%3A%2F%2Ffonts.googleapis.com%2Fcss%3Ffamily%3DArchitects%2BDaughter;fontSize=20;" vertex="1" parent="1">
          <mxGeometry x="160" y="300" width="480" height="40" as="geometry" />
        </mxCell>
        <mxCell id="OiVBez5M1Nfayc0aatm5-5" value="make a test folder" style="rounded=0;whiteSpace=wrap;html=1;sketch=1;hachureGap=4;jiggle=2;curveFitting=1;fontFamily=Architects Daughter;fontSource=https%3A%2F%2Ffonts.googleapis.com%2Fcss%3Ffamily%3DArchitects%2BDaughter;fontSize=20;" vertex="1" parent="1">
          <mxGeometry x="160" y="370" width="480" height="40" as="geometry" />
        </mxCell>
        <mxCell id="OiVBez5M1Nfayc0aatm5-15" style="edgeStyle=orthogonalEdgeStyle;rounded=0;sketch=1;hachureGap=4;jiggle=2;curveFitting=1;orthogonalLoop=1;jettySize=auto;html=1;entryX=0;entryY=0.5;entryDx=0;entryDy=0;fontFamily=Architects Daughter;fontSource=https%3A%2F%2Ffonts.googleapis.com%2Fcss%3Ffamily%3DArchitects%2BDaughter;fontSize=16;" edge="1" parent="1" source="OiVBez5M1Nfayc0aatm5-6" target="OiVBez5M1Nfayc0aatm5-7">
          <mxGeometry relative="1" as="geometry">
            <Array as="points">
              <mxPoint x="120" y="493" />
            </Array>
          </mxGeometry>
        </mxCell>
        <mxCell id="OiVBez5M1Nfayc0aatm5-16" style="edgeStyle=orthogonalEdgeStyle;rounded=0;sketch=1;hachureGap=4;jiggle=2;curveFitting=1;orthogonalLoop=1;jettySize=auto;html=1;entryX=0;entryY=0.5;entryDx=0;entryDy=0;fontFamily=Architects Daughter;fontSource=https%3A%2F%2Ffonts.googleapis.com%2Fcss%3Ffamily%3DArchitects%2BDaughter;fontSize=16;" edge="1" parent="1" source="OiVBez5M1Nfayc0aatm5-6" target="OiVBez5M1Nfayc0aatm5-8">
          <mxGeometry relative="1" as="geometry">
            <Array as="points">
              <mxPoint x="115" y="620" />
            </Array>
          </mxGeometry>
        </mxCell>
        <mxCell id="OiVBez5M1Nfayc0aatm5-6" value="Test" style="rounded=0;whiteSpace=wrap;html=1;sketch=1;hachureGap=4;jiggle=2;curveFitting=1;fontFamily=Architects Daughter;fontSource=https%3A%2F%2Ffonts.googleapis.com%2Fcss%3Ffamily%3DArchitects%2BDaughter;fontSize=20;" vertex="1" parent="1">
          <mxGeometry x="40" y="535" width="150" height="40" as="geometry" />
        </mxCell>
        <mxCell id="OiVBez5M1Nfayc0aatm5-17" style="edgeStyle=orthogonalEdgeStyle;rounded=0;sketch=1;hachureGap=4;jiggle=2;curveFitting=1;orthogonalLoop=1;jettySize=auto;html=1;entryX=0;entryY=0.5;entryDx=0;entryDy=0;fontFamily=Architects Daughter;fontSource=https%3A%2F%2Ffonts.googleapis.com%2Fcss%3Ffamily%3DArchitects%2BDaughter;fontSize=16;" edge="1" parent="1" source="OiVBez5M1Nfayc0aatm5-7" target="OiVBez5M1Nfayc0aatm5-9">
          <mxGeometry relative="1" as="geometry" />
        </mxCell>
        <mxCell id="OiVBez5M1Nfayc0aatm5-7" value="단위 테스트 폴더&lt;br&gt;(Unit test)" style="rounded=0;whiteSpace=wrap;html=1;sketch=1;hachureGap=4;jiggle=2;curveFitting=1;fontFamily=Architects Daughter;fontSource=https%3A%2F%2Ffonts.googleapis.com%2Fcss%3Ffamily%3DArchitects%2BDaughter;fontSize=20;" vertex="1" parent="1">
          <mxGeometry x="240" y="460" width="180" height="65" as="geometry" />
        </mxCell>
        <mxCell id="OiVBez5M1Nfayc0aatm5-18" style="edgeStyle=orthogonalEdgeStyle;rounded=0;sketch=1;hachureGap=4;jiggle=2;curveFitting=1;orthogonalLoop=1;jettySize=auto;html=1;entryX=0;entryY=0.5;entryDx=0;entryDy=0;fontFamily=Architects Daughter;fontSource=https%3A%2F%2Ffonts.googleapis.com%2Fcss%3Ffamily%3DArchitects%2BDaughter;fontSize=16;" edge="1" parent="1" source="OiVBez5M1Nfayc0aatm5-8" target="OiVBez5M1Nfayc0aatm5-10">
          <mxGeometry relative="1" as="geometry" />
        </mxCell>
        <mxCell id="OiVBez5M1Nfayc0aatm5-8" value="통합 테스트 폴더&lt;br&gt;(Integration test)" style="rounded=0;whiteSpace=wrap;html=1;sketch=1;hachureGap=4;jiggle=2;curveFitting=1;fontFamily=Architects Daughter;fontSource=https%3A%2F%2Ffonts.googleapis.com%2Fcss%3Ffamily%3DArchitects%2BDaughter;fontSize=20;" vertex="1" parent="1">
          <mxGeometry x="240" y="585" width="180" height="70" as="geometry" />
        </mxCell>
        <mxCell id="OiVBez5M1Nfayc0aatm5-9" value="unit test file&lt;br&gt;name.test.js" style="rounded=0;whiteSpace=wrap;html=1;sketch=1;hachureGap=4;jiggle=2;curveFitting=1;fontFamily=Architects Daughter;fontSource=https%3A%2F%2Ffonts.googleapis.com%2Fcss%3Ffamily%3DArchitects%2BDaughter;fontSize=20;" vertex="1" parent="1">
          <mxGeometry x="510" y="460" width="180" height="65" as="geometry" />
        </mxCell>
        <mxCell id="OiVBez5M1Nfayc0aatm5-10" value="integration test&lt;br&gt;name.int.test.js" style="rounded=0;whiteSpace=wrap;html=1;sketch=1;hachureGap=4;jiggle=2;curveFitting=1;fontFamily=Architects Daughter;fontSource=https%3A%2F%2Ffonts.googleapis.com%2Fcss%3Ffamily%3DArchitects%2BDaughter;fontSize=20;" vertex="1" parent="1">
          <mxGeometry x="510" y="585" width="180" height="65" as="geometry" />
        </mxCell>
        <mxCell id="OiVBez5M1Nfayc0aatm5-19" style="edgeStyle=orthogonalEdgeStyle;rounded=0;sketch=1;hachureGap=4;jiggle=2;curveFitting=1;orthogonalLoop=1;jettySize=auto;html=1;entryX=0;entryY=0.75;entryDx=0;entryDy=0;fontFamily=Architects Daughter;fontSource=https%3A%2F%2Ffonts.googleapis.com%2Fcss%3Ffamily%3DArchitects%2BDaughter;fontSize=16;" edge="1" parent="1" source="OiVBez5M1Nfayc0aatm5-11" target="OiVBez5M1Nfayc0aatm5-12">
          <mxGeometry relative="1" as="geometry" />
        </mxCell>
        <mxCell id="OiVBez5M1Nfayc0aatm5-20" style="edgeStyle=orthogonalEdgeStyle;rounded=0;sketch=1;hachureGap=4;jiggle=2;curveFitting=1;orthogonalLoop=1;jettySize=auto;html=1;entryX=0;entryY=0.5;entryDx=0;entryDy=0;fontFamily=Architects Daughter;fontSource=https%3A%2F%2Ffonts.googleapis.com%2Fcss%3Ffamily%3DArchitects%2BDaughter;fontSize=16;" edge="1" parent="1" source="OiVBez5M1Nfayc0aatm5-11" target="OiVBez5M1Nfayc0aatm5-14">
          <mxGeometry relative="1" as="geometry" />
        </mxCell>
        <mxCell id="OiVBez5M1Nfayc0aatm5-21" style="edgeStyle=orthogonalEdgeStyle;rounded=0;sketch=1;hachureGap=4;jiggle=2;curveFitting=1;orthogonalLoop=1;jettySize=auto;html=1;entryX=0;entryY=0.5;entryDx=0;entryDy=0;fontFamily=Architects Daughter;fontSource=https%3A%2F%2Ffonts.googleapis.com%2Fcss%3Ffamily%3DArchitects%2BDaughter;fontSize=16;" edge="1" parent="1" source="OiVBez5M1Nfayc0aatm5-11" target="OiVBez5M1Nfayc0aatm5-13">
          <mxGeometry relative="1" as="geometry" />
        </mxCell>
        <mxCell id="OiVBez5M1Nfayc0aatm5-11" value="How to find test file by Jest" style="rounded=0;whiteSpace=wrap;html=1;sketch=1;hachureGap=4;jiggle=2;curveFitting=1;fontFamily=Architects Daughter;fontSource=https%3A%2F%2Ffonts.googleapis.com%2Fcss%3Ffamily%3DArchitects%2BDaughter;fontSize=20;" vertex="1" parent="1">
          <mxGeometry x="110" y="740" width="170" height="70" as="geometry" />
        </mxCell>
        <mxCell id="OiVBez5M1Nfayc0aatm5-12" value="{filename}.test.js" style="rounded=0;whiteSpace=wrap;html=1;sketch=1;hachureGap=4;jiggle=2;curveFitting=1;fontFamily=Architects Daughter;fontSource=https%3A%2F%2Ffonts.googleapis.com%2Fcss%3Ffamily%3DArchitects%2BDaughter;fontSize=20;" vertex="1" parent="1">
          <mxGeometry x="390" y="720" width="305" height="40" as="geometry" />
        </mxCell>
        <mxCell id="OiVBez5M1Nfayc0aatm5-13" value="All files inside of &#39;tests&#39; folders" style="rounded=0;whiteSpace=wrap;html=1;sketch=1;hachureGap=4;jiggle=2;curveFitting=1;fontFamily=Architects Daughter;fontSource=https%3A%2F%2Ffonts.googleapis.com%2Fcss%3Ffamily%3DArchitects%2BDaughter;fontSize=20;" vertex="1" parent="1">
          <mxGeometry x="390" y="840" width="305" height="40" as="geometry" />
        </mxCell>
        <mxCell id="OiVBez5M1Nfayc0aatm5-14" value="{filename}.spec.js" style="rounded=0;whiteSpace=wrap;html=1;sketch=1;hachureGap=4;jiggle=2;curveFitting=1;fontFamily=Architects Daughter;fontSource=https%3A%2F%2Ffonts.googleapis.com%2Fcss%3Ffamily%3DArchitects%2BDaughter;fontSize=20;" vertex="1" parent="1">
          <mxGeometry x="390" y="780" width="305" height="40" as="geometry" />
        </mxCell>
        <mxCell id="OiVBez5M1Nfayc0aatm5-26" value="" style="rounded=0;whiteSpace=wrap;html=1;sketch=1;hachureGap=4;jiggle=2;curveFitting=1;fontFamily=Architects Daughter;fontSource=https%3A%2F%2Ffonts.googleapis.com%2Fcss%3Ffamily%3DArchitects%2BDaughter;fontSize=20;" vertex="1" parent="1">
          <mxGeometry x="75" y="920" width="245" height="90" as="geometry" />
        </mxCell>
        <mxCell id="OiVBez5M1Nfayc0aatm5-27" value="it(test)" style="rounded=0;whiteSpace=wrap;html=1;sketch=1;hachureGap=4;jiggle=2;curveFitting=1;fontFamily=Architects Daughter;fontSource=https%3A%2F%2Ffonts.googleapis.com%2Fcss%3Ffamily%3DArchitects%2BDaughter;fontSize=20;" vertex="1" parent="1">
          <mxGeometry x="190" y="930" width="110" height="30" as="geometry" />
        </mxCell>
        <mxCell id="OiVBez5M1Nfayc0aatm5-28" value="describe" style="text;html=1;strokeColor=none;fillColor=none;align=center;verticalAlign=middle;whiteSpace=wrap;rounded=0;fontSize=20;fontFamily=Architects Daughter;" vertex="1" parent="1">
          <mxGeometry x="90" y="930" width="60" height="30" as="geometry" />
        </mxCell>
        <mxCell id="OiVBez5M1Nfayc0aatm5-38" style="edgeStyle=orthogonalEdgeStyle;rounded=0;sketch=1;hachureGap=4;jiggle=2;curveFitting=1;orthogonalLoop=1;jettySize=auto;html=1;entryX=0.5;entryY=0;entryDx=0;entryDy=0;fontFamily=Architects Daughter;fontSource=https%3A%2F%2Ffonts.googleapis.com%2Fcss%3Ffamily%3DArchitects%2BDaughter;fontSize=16;" edge="1" parent="1" source="OiVBez5M1Nfayc0aatm5-30" target="OiVBez5M1Nfayc0aatm5-34">
          <mxGeometry relative="1" as="geometry" />
        </mxCell>
        <mxCell id="OiVBez5M1Nfayc0aatm5-30" value="it(test)" style="rounded=0;whiteSpace=wrap;html=1;sketch=1;hachureGap=4;jiggle=2;curveFitting=1;fontFamily=Architects Daughter;fontSource=https%3A%2F%2Ffonts.googleapis.com%2Fcss%3Ffamily%3DArchitects%2BDaughter;fontSize=20;" vertex="1" parent="1">
          <mxGeometry x="190" y="970" width="110" height="30" as="geometry" />
        </mxCell>
        <mxCell id="OiVBez5M1Nfayc0aatm5-31" value="describe : 관련 테스트들을 그룹화하는 블록" style="rounded=0;whiteSpace=wrap;html=1;sketch=1;hachureGap=4;jiggle=2;curveFitting=1;fontFamily=Architects Daughter;fontSource=https%3A%2F%2Ffonts.googleapis.com%2Fcss%3Ffamily%3DArchitects%2BDaughter;fontSize=18;" vertex="1" parent="1">
          <mxGeometry x="360" y="920" width="380" height="40" as="geometry" />
        </mxCell>
        <mxCell id="OiVBez5M1Nfayc0aatm5-32" value="it : 유닛테스트를 수행하는 곳" style="rounded=0;whiteSpace=wrap;html=1;sketch=1;hachureGap=4;jiggle=2;curveFitting=1;fontFamily=Architects Daughter;fontSource=https%3A%2F%2Ffonts.googleapis.com%2Fcss%3Ffamily%3DArchitects%2BDaughter;fontSize=18;" vertex="1" parent="1">
          <mxGeometry x="360" y="970" width="380" height="35" as="geometry" />
        </mxCell>
        <mxCell id="OiVBez5M1Nfayc0aatm5-33" style="edgeStyle=orthogonalEdgeStyle;rounded=0;sketch=1;hachureGap=4;jiggle=2;curveFitting=1;orthogonalLoop=1;jettySize=auto;html=1;exitX=0.5;exitY=1;exitDx=0;exitDy=0;fontFamily=Architects Daughter;fontSource=https%3A%2F%2Ffonts.googleapis.com%2Fcss%3Ffamily%3DArchitects%2BDaughter;fontSize=16;" edge="1" parent="1" source="OiVBez5M1Nfayc0aatm5-26" target="OiVBez5M1Nfayc0aatm5-26">
          <mxGeometry relative="1" as="geometry" />
        </mxCell>
        <mxCell id="OiVBez5M1Nfayc0aatm5-34" value="" style="rounded=0;whiteSpace=wrap;html=1;sketch=1;hachureGap=4;jiggle=2;curveFitting=1;fontFamily=Architects Daughter;fontSource=https%3A%2F%2Ffonts.googleapis.com%2Fcss%3Ffamily%3DArchitects%2BDaughter;fontSize=20;" vertex="1" parent="1">
          <mxGeometry x="75" y="1040" width="265" height="50" as="geometry" />
        </mxCell>
        <mxCell id="OiVBez5M1Nfayc0aatm5-35" value="expect" style="rounded=0;whiteSpace=wrap;html=1;sketch=1;hachureGap=4;jiggle=2;curveFitting=1;fontFamily=Architects Daughter;fontSource=https%3A%2F%2Ffonts.googleapis.com%2Fcss%3Ffamily%3DArchitects%2BDaughter;fontSize=20;" vertex="1" parent="1">
          <mxGeometry x="120" y="1050" width="90" height="30" as="geometry" />
        </mxCell>
        <mxCell id="OiVBez5M1Nfayc0aatm5-36" value="matcher" style="rounded=0;whiteSpace=wrap;html=1;sketch=1;hachureGap=4;jiggle=2;curveFitting=1;fontFamily=Architects Daughter;fontSource=https%3A%2F%2Ffonts.googleapis.com%2Fcss%3Ffamily%3DArchitects%2BDaughter;fontSize=20;" vertex="1" parent="1">
          <mxGeometry x="230" y="1050" width="90" height="30" as="geometry" />
        </mxCell>
        <mxCell id="OiVBez5M1Nfayc0aatm5-37" value="it" style="text;html=1;strokeColor=none;fillColor=none;align=center;verticalAlign=middle;whiteSpace=wrap;rounded=0;fontSize=20;fontFamily=Architects Daughter;" vertex="1" parent="1">
          <mxGeometry x="75" y="1050" width="45" height="30" as="geometry" />
        </mxCell>
        <mxCell id="OiVBez5M1Nfayc0aatm5-39" value="expect.matcher =&amp;gt; ex) expect(2+3).tobe(5)" style="rounded=0;whiteSpace=wrap;html=1;sketch=1;hachureGap=4;jiggle=2;curveFitting=1;fontFamily=Architects Daughter;fontSource=https%3A%2F%2Ffonts.googleapis.com%2Fcss%3Ffamily%3DArchitects%2BDaughter;fontSize=18;" vertex="1" parent="1">
          <mxGeometry x="360" y="1015" width="380" height="35" as="geometry" />
        </mxCell>
      </root>
    </mxGraphModel>
  </diagram>
</mxfile>
